<mxfile host="65bd71144e">
    <diagram id="FflS984OIJWIPXjj9kDc" name="PÃ¡gina-1">
        <mxGraphModel dx="3262" dy="885" grid="1" gridSize="10" guides="1" tooltips="1" connect="1" arrows="1" fold="1" page="1" pageScale="1" pageWidth="827" pageHeight="1169" math="0" shadow="0">
            <root>
                <mxCell id="0"/>
                <mxCell id="1" parent="0"/>
                <mxCell id="10" value="Cliente" style="rounded=0;whiteSpace=wrap;html=1;" vertex="1" parent="1">
                    <mxGeometry x="30" y="20" width="120" height="60" as="geometry"/>
                </mxCell>
                <mxCell id="11" value="cadastro" style="rhombus;whiteSpace=wrap;html=1;" vertex="1" parent="1">
                    <mxGeometry x="260" y="10" width="80" height="80" as="geometry"/>
                </mxCell>
                <mxCell id="12" value="Usuario" style="rounded=0;whiteSpace=wrap;html=1;" vertex="1" parent="1">
                    <mxGeometry x="450" y="20" width="120" height="60" as="geometry"/>
                </mxCell>
                <mxCell id="15" value="Produto" style="rounded=0;whiteSpace=wrap;html=1;" vertex="1" parent="1">
                    <mxGeometry x="30" y="430" width="120" height="60" as="geometry"/>
                </mxCell>
                <mxCell id="16" value="" style="endArrow=none;html=1;exitX=1;exitY=0.5;exitDx=0;exitDy=0;entryX=0;entryY=0.5;entryDx=0;entryDy=0;" edge="1" parent="1" source="10" target="11">
                    <mxGeometry width="50" height="50" relative="1" as="geometry">
                        <mxPoint x="320" y="210" as="sourcePoint"/>
                        <mxPoint x="370" y="160" as="targetPoint"/>
                    </mxGeometry>
                </mxCell>
                <mxCell id="17" value="" style="endArrow=none;html=1;exitX=1;exitY=0.5;exitDx=0;exitDy=0;entryX=0;entryY=0.5;entryDx=0;entryDy=0;" edge="1" parent="1">
                    <mxGeometry width="50" height="50" relative="1" as="geometry">
                        <mxPoint x="340" y="49.29" as="sourcePoint"/>
                        <mxPoint x="450" y="49.29" as="targetPoint"/>
                    </mxGeometry>
                </mxCell>
                <mxCell id="18" value="Contem" style="rhombus;whiteSpace=wrap;html=1;" vertex="1" parent="1">
                    <mxGeometry x="260" y="420" width="80" height="80" as="geometry"/>
                </mxCell>
                <mxCell id="19" value="Pedido" style="rounded=0;whiteSpace=wrap;html=1;" vertex="1" parent="1">
                    <mxGeometry x="450" y="430" width="120" height="60" as="geometry"/>
                </mxCell>
                <mxCell id="20" value="" style="endArrow=none;html=1;exitX=1;exitY=0.5;exitDx=0;exitDy=0;entryX=0;entryY=0.5;entryDx=0;entryDy=0;" edge="1" parent="1">
                    <mxGeometry width="50" height="50" relative="1" as="geometry">
                        <mxPoint x="150" y="460" as="sourcePoint"/>
                        <mxPoint x="260" y="460" as="targetPoint"/>
                    </mxGeometry>
                </mxCell>
                <mxCell id="21" value="" style="endArrow=none;html=1;exitX=1;exitY=0.5;exitDx=0;exitDy=0;entryX=0;entryY=0.5;entryDx=0;entryDy=0;" edge="1" parent="1">
                    <mxGeometry width="50" height="50" relative="1" as="geometry">
                        <mxPoint x="340" y="459.28999999999996" as="sourcePoint"/>
                        <mxPoint x="450" y="459.28999999999996" as="targetPoint"/>
                    </mxGeometry>
                </mxCell>
                <mxCell id="22" value="Nome" style="ellipse;whiteSpace=wrap;html=1;" vertex="1" parent="1">
                    <mxGeometry x="-90" y="130" width="120" height="80" as="geometry"/>
                </mxCell>
                <mxCell id="23" value="Cpf" style="ellipse;whiteSpace=wrap;html=1;" vertex="1" parent="1">
                    <mxGeometry x="140" y="130" width="120" height="80" as="geometry"/>
                </mxCell>
                <mxCell id="24" value="" style="endArrow=none;html=1;exitX=1;exitY=0.5;exitDx=0;exitDy=0;entryX=0.25;entryY=1;entryDx=0;entryDy=0;" edge="1" parent="1" target="10">
                    <mxGeometry width="50" height="50" relative="1" as="geometry">
                        <mxPoint x="-20" y="128.57" as="sourcePoint"/>
                        <mxPoint x="90" y="128.57" as="targetPoint"/>
                    </mxGeometry>
                </mxCell>
                <mxCell id="25" value="" style="endArrow=none;html=1;exitX=0.5;exitY=0;exitDx=0;exitDy=0;entryX=0.75;entryY=1;entryDx=0;entryDy=0;" edge="1" parent="1" source="23" target="10">
                    <mxGeometry width="50" height="50" relative="1" as="geometry">
                        <mxPoint x="150" y="138.57" as="sourcePoint"/>
                        <mxPoint x="230" y="90" as="targetPoint"/>
                    </mxGeometry>
                </mxCell>
                <mxCell id="26" value="primeiroNome" style="ellipse;whiteSpace=wrap;html=1;" vertex="1" parent="1">
                    <mxGeometry x="-170" y="260" width="80" height="40" as="geometry"/>
                </mxCell>
                <mxCell id="27" value="segundoNome" style="ellipse;whiteSpace=wrap;html=1;" vertex="1" parent="1">
                    <mxGeometry x="-60" y="260" width="80" height="40" as="geometry"/>
                </mxCell>
                <mxCell id="28" value="ID" style="ellipse;whiteSpace=wrap;html=1;" vertex="1" parent="1">
                    <mxGeometry x="50" y="260" width="80" height="40" as="geometry"/>
                </mxCell>
                <mxCell id="29" value="" style="endArrow=none;html=1;exitX=0.5;exitY=0;exitDx=0;exitDy=0;entryX=1;entryY=1;entryDx=0;entryDy=0;" edge="1" parent="1" target="22">
                    <mxGeometry width="50" height="50" relative="1" as="geometry">
                        <mxPoint x="80" y="260" as="sourcePoint"/>
                        <mxPoint y="210" as="targetPoint"/>
                    </mxGeometry>
                </mxCell>
                <mxCell id="30" value="" style="endArrow=none;html=1;exitX=0.5;exitY=0;exitDx=0;exitDy=0;entryX=0;entryY=1;entryDx=0;entryDy=0;" edge="1" parent="1" target="22">
                    <mxGeometry width="50" height="50" relative="1" as="geometry">
                        <mxPoint x="-122" y="260" as="sourcePoint"/>
                        <mxPoint x="-190" y="198" as="targetPoint"/>
                    </mxGeometry>
                </mxCell>
                <mxCell id="31" value="" style="endArrow=none;html=1;exitX=0.5;exitY=0;exitDx=0;exitDy=0;entryX=0.5;entryY=1;entryDx=0;entryDy=0;" edge="1" parent="1" target="22">
                    <mxGeometry width="50" height="50" relative="1" as="geometry">
                        <mxPoint x="-20" y="260" as="sourcePoint"/>
                        <mxPoint x="30" y="198" as="targetPoint"/>
                    </mxGeometry>
                </mxCell>
                <mxCell id="32" value="Faz" style="rhombus;whiteSpace=wrap;html=1;" vertex="1" parent="1">
                    <mxGeometry x="470" y="200" width="80" height="80" as="geometry"/>
                </mxCell>
                <mxCell id="33" value="" style="endArrow=none;html=1;exitX=0.5;exitY=0;exitDx=0;exitDy=0;entryX=0.5;entryY=1;entryDx=0;entryDy=0;strokeColor=default;" edge="1" parent="1" target="12">
                    <mxGeometry width="50" height="50" relative="1" as="geometry">
                        <mxPoint x="510" y="200" as="sourcePoint"/>
                        <mxPoint x="430" y="150" as="targetPoint"/>
                    </mxGeometry>
                </mxCell>
                <mxCell id="34" value="" style="endArrow=none;html=1;exitX=0.5;exitY=0;exitDx=0;exitDy=0;entryX=0.5;entryY=1;entryDx=0;entryDy=0;" edge="1" parent="1" source="19">
                    <mxGeometry width="50" height="50" relative="1" as="geometry">
                        <mxPoint x="509.29" y="400" as="sourcePoint"/>
                        <mxPoint x="509.29" y="280" as="targetPoint"/>
                    </mxGeometry>
                </mxCell>
                <mxCell id="35" value="0:N" style="text;html=1;align=center;verticalAlign=middle;whiteSpace=wrap;rounded=0;" vertex="1" parent="1">
                    <mxGeometry x="540" y="400" width="60" height="30" as="geometry"/>
                </mxCell>
                <mxCell id="36" value="1" style="text;html=1;align=center;verticalAlign=middle;whiteSpace=wrap;rounded=0;" vertex="1" parent="1">
                    <mxGeometry x="530" y="90" width="60" height="30" as="geometry"/>
                </mxCell>
                <mxCell id="37" value="1" style="text;html=1;align=center;verticalAlign=middle;whiteSpace=wrap;rounded=0;" vertex="1" parent="1">
                    <mxGeometry x="410" y="50" width="60" height="30" as="geometry"/>
                </mxCell>
                <mxCell id="38" value="1" style="text;html=1;align=center;verticalAlign=middle;whiteSpace=wrap;rounded=0;" vertex="1" parent="1">
                    <mxGeometry x="150" y="50" width="60" height="30" as="geometry"/>
                </mxCell>
                <mxCell id="39" value="N" style="text;html=1;align=center;verticalAlign=middle;whiteSpace=wrap;rounded=0;" vertex="1" parent="1">
                    <mxGeometry x="400" y="460" width="60" height="30" as="geometry"/>
                </mxCell>
                <mxCell id="40" value="M" style="text;html=1;align=center;verticalAlign=middle;whiteSpace=wrap;rounded=0;" vertex="1" parent="1">
                    <mxGeometry x="140" y="460" width="60" height="30" as="geometry"/>
                </mxCell>
                <mxCell id="41" value="ID" style="ellipse;whiteSpace=wrap;html=1;" vertex="1" parent="1">
                    <mxGeometry x="-50" y="540" width="80" height="30" as="geometry"/>
                </mxCell>
                <mxCell id="42" value="ID" style="ellipse;whiteSpace=wrap;html=1;" vertex="1" parent="1">
                    <mxGeometry x="440" y="540" width="80" height="30" as="geometry"/>
                </mxCell>
                <mxCell id="43" value="ID" style="ellipse;whiteSpace=wrap;html=1;" vertex="1" parent="1">
                    <mxGeometry x="640" y="20" width="80" height="30" as="geometry"/>
                </mxCell>
                <mxCell id="44" value="" style="endArrow=none;html=1;exitX=0.5;exitY=0;exitDx=0;exitDy=0;entryX=1;entryY=1;entryDx=0;entryDy=0;" edge="1" parent="1" target="12">
                    <mxGeometry width="50" height="50" relative="1" as="geometry">
                        <mxPoint x="620" y="130" as="sourcePoint"/>
                        <mxPoint x="655" y="90" as="targetPoint"/>
                    </mxGeometry>
                </mxCell>
                <mxCell id="46" value="" style="endArrow=none;html=1;exitX=0.5;exitY=0;exitDx=0;exitDy=0;entryX=0.25;entryY=1;entryDx=0;entryDy=0;" edge="1" parent="1" target="15">
                    <mxGeometry width="50" height="50" relative="1" as="geometry">
                        <mxPoint x="20" y="540" as="sourcePoint"/>
                        <mxPoint x="55" y="500" as="targetPoint"/>
                    </mxGeometry>
                </mxCell>
                <mxCell id="47" value="" style="endArrow=none;html=1;exitX=0.5;exitY=0;exitDx=0;exitDy=0;entryX=0.25;entryY=1;entryDx=0;entryDy=0;" edge="1" parent="1" target="19">
                    <mxGeometry width="50" height="50" relative="1" as="geometry">
                        <mxPoint x="480" y="540" as="sourcePoint"/>
                        <mxPoint x="520" y="490" as="targetPoint"/>
                    </mxGeometry>
                </mxCell>
                <mxCell id="49" value="Nome" style="ellipse;whiteSpace=wrap;html=1;" vertex="1" parent="1">
                    <mxGeometry x="620" y="120" width="80" height="30" as="geometry"/>
                </mxCell>
                <mxCell id="50" value="Usuario" style="ellipse;whiteSpace=wrap;html=1;" vertex="1" parent="1">
                    <mxGeometry x="630" y="60" width="80" height="30" as="geometry"/>
                </mxCell>
                <mxCell id="51" value="" style="endArrow=none;html=1;exitX=0.5;exitY=0;exitDx=0;exitDy=0;entryX=1;entryY=0.5;entryDx=0;entryDy=0;" edge="1" parent="1" target="12">
                    <mxGeometry width="50" height="50" relative="1" as="geometry">
                        <mxPoint x="630" y="75" as="sourcePoint"/>
                        <mxPoint x="580" y="25" as="targetPoint"/>
                    </mxGeometry>
                </mxCell>
                <mxCell id="52" value="" style="endArrow=none;html=1;exitX=0.5;exitY=0;exitDx=0;exitDy=0;entryX=1;entryY=0.25;entryDx=0;entryDy=0;" edge="1" parent="1" target="12">
                    <mxGeometry width="50" height="50" relative="1" as="geometry">
                        <mxPoint x="640" y="35" as="sourcePoint"/>
                        <mxPoint x="580" y="10" as="targetPoint"/>
                    </mxGeometry>
                </mxCell>
                <mxCell id="53" value="CodPedido" style="ellipse;whiteSpace=wrap;html=1;" vertex="1" parent="1">
                    <mxGeometry x="640" y="470" width="80" height="30" as="geometry"/>
                </mxCell>
                <mxCell id="54" value="" style="endArrow=none;html=1;exitX=0.5;exitY=0;exitDx=0;exitDy=0;entryX=0.5;entryY=1;entryDx=0;entryDy=0;" edge="1" parent="1" target="19">
                    <mxGeometry width="50" height="50" relative="1" as="geometry">
                        <mxPoint x="620" y="580" as="sourcePoint"/>
                        <mxPoint x="570" y="530" as="targetPoint"/>
                    </mxGeometry>
                </mxCell>
                <mxCell id="55" value="Valor" style="ellipse;whiteSpace=wrap;html=1;" vertex="1" parent="1">
                    <mxGeometry x="620" y="570" width="80" height="30" as="geometry"/>
                </mxCell>
                <mxCell id="56" value="Produtos" style="ellipse;whiteSpace=wrap;html=1;" vertex="1" parent="1">
                    <mxGeometry x="630" y="510" width="80" height="30" as="geometry"/>
                </mxCell>
                <mxCell id="57" value="" style="endArrow=none;html=1;exitX=0.5;exitY=0;exitDx=0;exitDy=0;entryX=0.75;entryY=1;entryDx=0;entryDy=0;" edge="1" parent="1" target="19">
                    <mxGeometry width="50" height="50" relative="1" as="geometry">
                        <mxPoint x="630" y="525" as="sourcePoint"/>
                        <mxPoint x="570" y="500" as="targetPoint"/>
                    </mxGeometry>
                </mxCell>
                <mxCell id="58" value="" style="endArrow=none;html=1;exitX=0.5;exitY=0;exitDx=0;exitDy=0;entryX=1;entryY=0.25;entryDx=0;entryDy=0;" edge="1" parent="1">
                    <mxGeometry width="50" height="50" relative="1" as="geometry">
                        <mxPoint x="640" y="485" as="sourcePoint"/>
                        <mxPoint x="570" y="485" as="targetPoint"/>
                    </mxGeometry>
                </mxCell>
                <mxCell id="59" value="UsuarioPedido" style="ellipse;whiteSpace=wrap;html=1;" vertex="1" parent="1">
                    <mxGeometry x="630" y="420" width="80" height="30" as="geometry"/>
                </mxCell>
                <mxCell id="60" value="" style="endArrow=none;html=1;entryX=1;entryY=0.25;entryDx=0;entryDy=0;" edge="1" parent="1">
                    <mxGeometry width="50" height="50" relative="1" as="geometry">
                        <mxPoint x="630" y="434" as="sourcePoint"/>
                        <mxPoint x="570" y="434.29" as="targetPoint"/>
                    </mxGeometry>
                </mxCell>
                <mxCell id="84" value="Cliente" style="shape=table;startSize=40;container=1;collapsible=0;childLayout=tableLayout;strokeColor=default;fontSize=16;fontFamily=Helvetica;fontColor=default;labelBackgroundColor=default;" vertex="1" parent="1">
                    <mxGeometry x="-1070" y="70" width="784" height="242.5" as="geometry"/>
                </mxCell>
                <mxCell id="85" value="" style="shape=tableRow;horizontal=0;startSize=0;swimlaneHead=0;swimlaneBody=0;strokeColor=inherit;top=0;left=0;bottom=0;right=0;collapsible=0;dropTarget=0;fillColor=none;points=[[0,0.5],[1,0.5]];portConstraint=eastwest;fontSize=16;fontFamily=Helvetica;fontColor=default;labelBackgroundColor=default;" vertex="1" parent="84">
                    <mxGeometry y="40" width="784" height="67" as="geometry"/>
                </mxCell>
                <mxCell id="86" value="ID" style="shape=partialRectangle;html=1;whiteSpace=wrap;connectable=0;strokeColor=inherit;overflow=hidden;fillColor=none;top=0;left=0;bottom=0;right=0;pointerEvents=1;fontSize=16;fontFamily=Helvetica;fontColor=default;labelBackgroundColor=default;" vertex="1" parent="85">
                    <mxGeometry width="157" height="67" as="geometry">
                        <mxRectangle width="157" height="67" as="alternateBounds"/>
                    </mxGeometry>
                </mxCell>
                <mxCell id="87" value="primeiroNome" style="shape=partialRectangle;html=1;whiteSpace=wrap;connectable=0;strokeColor=inherit;overflow=hidden;fillColor=none;top=0;left=0;bottom=0;right=0;pointerEvents=1;fontSize=16;fontFamily=Helvetica;fontColor=default;labelBackgroundColor=default;" vertex="1" parent="85">
                    <mxGeometry x="157" width="156" height="67" as="geometry">
                        <mxRectangle width="156" height="67" as="alternateBounds"/>
                    </mxGeometry>
                </mxCell>
                <mxCell id="88" value="segundoNome" style="shape=partialRectangle;html=1;whiteSpace=wrap;connectable=0;strokeColor=inherit;overflow=hidden;fillColor=none;top=0;left=0;bottom=0;right=0;pointerEvents=1;fontSize=16;fontFamily=Helvetica;fontColor=default;labelBackgroundColor=default;" vertex="1" parent="85">
                    <mxGeometry x="313" width="157" height="67" as="geometry">
                        <mxRectangle width="157" height="67" as="alternateBounds"/>
                    </mxGeometry>
                </mxCell>
                <mxCell id="99" value="ID_Usuario" style="shape=partialRectangle;html=1;whiteSpace=wrap;connectable=0;strokeColor=inherit;overflow=hidden;fillColor=none;top=0;left=0;bottom=0;right=0;pointerEvents=1;fontSize=16;fontFamily=Helvetica;fontColor=default;labelBackgroundColor=default;" vertex="1" parent="85">
                    <mxGeometry x="470" width="157" height="67" as="geometry">
                        <mxRectangle width="157" height="67" as="alternateBounds"/>
                    </mxGeometry>
                </mxCell>
                <mxCell id="140" value="CPF" style="shape=partialRectangle;html=1;whiteSpace=wrap;connectable=0;strokeColor=inherit;overflow=hidden;fillColor=none;top=0;left=0;bottom=0;right=0;pointerEvents=1;fontSize=16;fontFamily=Helvetica;fontColor=default;labelBackgroundColor=default;" vertex="1" parent="85">
                    <mxGeometry x="627" width="157" height="67" as="geometry">
                        <mxRectangle width="157" height="67" as="alternateBounds"/>
                    </mxGeometry>
                </mxCell>
                <mxCell id="89" value="" style="shape=tableRow;horizontal=0;startSize=0;swimlaneHead=0;swimlaneBody=0;strokeColor=inherit;top=0;left=0;bottom=0;right=0;collapsible=0;dropTarget=0;fillColor=none;points=[[0,0.5],[1,0.5]];portConstraint=eastwest;fontSize=16;fontFamily=Helvetica;fontColor=default;labelBackgroundColor=default;" vertex="1" parent="84">
                    <mxGeometry y="107" width="784" height="68" as="geometry"/>
                </mxCell>
                <mxCell id="90" value="05" style="shape=partialRectangle;html=1;whiteSpace=wrap;connectable=0;strokeColor=inherit;overflow=hidden;fillColor=none;top=0;left=0;bottom=0;right=0;pointerEvents=1;fontSize=16;fontFamily=Helvetica;fontColor=default;labelBackgroundColor=default;" vertex="1" parent="89">
                    <mxGeometry width="157" height="68" as="geometry">
                        <mxRectangle width="157" height="68" as="alternateBounds"/>
                    </mxGeometry>
                </mxCell>
                <mxCell id="91" value="Felipe" style="shape=partialRectangle;html=1;whiteSpace=wrap;connectable=0;strokeColor=inherit;overflow=hidden;fillColor=none;top=0;left=0;bottom=0;right=0;pointerEvents=1;fontSize=16;fontFamily=Helvetica;fontColor=default;labelBackgroundColor=default;" vertex="1" parent="89">
                    <mxGeometry x="157" width="156" height="68" as="geometry">
                        <mxRectangle width="156" height="68" as="alternateBounds"/>
                    </mxGeometry>
                </mxCell>
                <mxCell id="92" value="Rodrigues" style="shape=partialRectangle;html=1;whiteSpace=wrap;connectable=0;strokeColor=inherit;overflow=hidden;fillColor=none;top=0;left=0;bottom=0;right=0;pointerEvents=1;fontSize=16;fontFamily=Helvetica;fontColor=default;labelBackgroundColor=default;" vertex="1" parent="89">
                    <mxGeometry x="313" width="157" height="68" as="geometry">
                        <mxRectangle width="157" height="68" as="alternateBounds"/>
                    </mxGeometry>
                </mxCell>
                <mxCell id="100" value="5" style="shape=partialRectangle;html=1;whiteSpace=wrap;connectable=0;strokeColor=inherit;overflow=hidden;fillColor=none;top=0;left=0;bottom=0;right=0;pointerEvents=1;fontSize=16;fontFamily=Helvetica;fontColor=default;labelBackgroundColor=default;" vertex="1" parent="89">
                    <mxGeometry x="470" width="157" height="68" as="geometry">
                        <mxRectangle width="157" height="68" as="alternateBounds"/>
                    </mxGeometry>
                </mxCell>
                <mxCell id="141" value="12312312312" style="shape=partialRectangle;html=1;whiteSpace=wrap;connectable=0;strokeColor=inherit;overflow=hidden;fillColor=none;top=0;left=0;bottom=0;right=0;pointerEvents=1;fontSize=16;fontFamily=Helvetica;fontColor=default;labelBackgroundColor=default;" vertex="1" parent="89">
                    <mxGeometry x="627" width="157" height="68" as="geometry">
                        <mxRectangle width="157" height="68" as="alternateBounds"/>
                    </mxGeometry>
                </mxCell>
                <mxCell id="93" value="" style="shape=tableRow;horizontal=0;startSize=0;swimlaneHead=0;swimlaneBody=0;strokeColor=inherit;top=0;left=0;bottom=0;right=0;collapsible=0;dropTarget=0;fillColor=none;points=[[0,0.5],[1,0.5]];portConstraint=eastwest;fontSize=16;fontFamily=Helvetica;fontColor=default;labelBackgroundColor=default;" vertex="1" parent="84">
                    <mxGeometry y="175" width="784" height="68" as="geometry"/>
                </mxCell>
                <mxCell id="94" value="" style="shape=partialRectangle;html=1;whiteSpace=wrap;connectable=0;strokeColor=inherit;overflow=hidden;fillColor=none;top=0;left=0;bottom=0;right=0;pointerEvents=1;fontSize=16;fontFamily=Helvetica;fontColor=default;labelBackgroundColor=default;" vertex="1" parent="93">
                    <mxGeometry width="157" height="68" as="geometry">
                        <mxRectangle width="157" height="68" as="alternateBounds"/>
                    </mxGeometry>
                </mxCell>
                <mxCell id="95" value="" style="shape=partialRectangle;html=1;whiteSpace=wrap;connectable=0;strokeColor=inherit;overflow=hidden;fillColor=none;top=0;left=0;bottom=0;right=0;pointerEvents=1;fontSize=16;fontFamily=Helvetica;fontColor=default;labelBackgroundColor=default;" vertex="1" parent="93">
                    <mxGeometry x="157" width="156" height="68" as="geometry">
                        <mxRectangle width="156" height="68" as="alternateBounds"/>
                    </mxGeometry>
                </mxCell>
                <mxCell id="96" value="" style="shape=partialRectangle;html=1;whiteSpace=wrap;connectable=0;strokeColor=inherit;overflow=hidden;fillColor=none;top=0;left=0;bottom=0;right=0;pointerEvents=1;fontSize=16;fontFamily=Helvetica;fontColor=default;labelBackgroundColor=default;" vertex="1" parent="93">
                    <mxGeometry x="313" width="157" height="68" as="geometry">
                        <mxRectangle width="157" height="68" as="alternateBounds"/>
                    </mxGeometry>
                </mxCell>
                <mxCell id="101" style="shape=partialRectangle;html=1;whiteSpace=wrap;connectable=0;strokeColor=inherit;overflow=hidden;fillColor=none;top=0;left=0;bottom=0;right=0;pointerEvents=1;fontSize=16;fontFamily=Helvetica;fontColor=default;labelBackgroundColor=default;" vertex="1" parent="93">
                    <mxGeometry x="470" width="157" height="68" as="geometry">
                        <mxRectangle width="157" height="68" as="alternateBounds"/>
                    </mxGeometry>
                </mxCell>
                <mxCell id="142" style="shape=partialRectangle;html=1;whiteSpace=wrap;connectable=0;strokeColor=inherit;overflow=hidden;fillColor=none;top=0;left=0;bottom=0;right=0;pointerEvents=1;fontSize=16;fontFamily=Helvetica;fontColor=default;labelBackgroundColor=default;" vertex="1" parent="93">
                    <mxGeometry x="627" width="157" height="68" as="geometry">
                        <mxRectangle width="157" height="68" as="alternateBounds"/>
                    </mxGeometry>
                </mxCell>
                <mxCell id="97" value="ID_Usuario" style="ellipse;whiteSpace=wrap;html=1;" vertex="1" parent="1">
                    <mxGeometry x="-250" y="200" width="80" height="40" as="geometry"/>
                </mxCell>
                <mxCell id="98" value="" style="endArrow=none;html=1;exitX=0.5;exitY=0;exitDx=0;exitDy=0;entryX=0;entryY=0.5;entryDx=0;entryDy=0;" edge="1" parent="1" target="22">
                    <mxGeometry width="50" height="50" relative="1" as="geometry">
                        <mxPoint x="-170" y="222" as="sourcePoint"/>
                        <mxPoint x="-120" y="160" as="targetPoint"/>
                        <Array as="points"/>
                    </mxGeometry>
                </mxCell>
                <mxCell id="124" value="Usuario" style="shape=table;startSize=40;container=1;collapsible=0;childLayout=tableLayout;strokeColor=default;fontSize=16;fontFamily=Helvetica;fontColor=default;labelBackgroundColor=default;" vertex="1" parent="1">
                    <mxGeometry x="-960" y="338.75" width="627" height="242.5" as="geometry"/>
                </mxCell>
                <mxCell id="125" value="" style="shape=tableRow;horizontal=0;startSize=0;swimlaneHead=0;swimlaneBody=0;strokeColor=inherit;top=0;left=0;bottom=0;right=0;collapsible=0;dropTarget=0;fillColor=none;points=[[0,0.5],[1,0.5]];portConstraint=eastwest;fontSize=16;fontFamily=Helvetica;fontColor=default;labelBackgroundColor=default;" vertex="1" parent="124">
                    <mxGeometry y="40" width="627" height="67" as="geometry"/>
                </mxCell>
                <mxCell id="126" value="ID" style="shape=partialRectangle;html=1;whiteSpace=wrap;connectable=0;strokeColor=inherit;overflow=hidden;fillColor=none;top=0;left=0;bottom=0;right=0;pointerEvents=1;fontSize=16;fontFamily=Helvetica;fontColor=default;labelBackgroundColor=default;" vertex="1" parent="125">
                    <mxGeometry width="157" height="67" as="geometry">
                        <mxRectangle width="157" height="67" as="alternateBounds"/>
                    </mxGeometry>
                </mxCell>
                <mxCell id="127" value="Usuario" style="shape=partialRectangle;html=1;whiteSpace=wrap;connectable=0;strokeColor=inherit;overflow=hidden;fillColor=none;top=0;left=0;bottom=0;right=0;pointerEvents=1;fontSize=16;fontFamily=Helvetica;fontColor=default;labelBackgroundColor=default;" vertex="1" parent="125">
                    <mxGeometry x="157" width="156" height="67" as="geometry">
                        <mxRectangle width="156" height="67" as="alternateBounds"/>
                    </mxGeometry>
                </mxCell>
                <mxCell id="128" value="Nome" style="shape=partialRectangle;html=1;whiteSpace=wrap;connectable=0;strokeColor=inherit;overflow=hidden;fillColor=none;top=0;left=0;bottom=0;right=0;pointerEvents=1;fontSize=16;fontFamily=Helvetica;fontColor=default;labelBackgroundColor=default;" vertex="1" parent="125">
                    <mxGeometry x="313" width="157" height="67" as="geometry">
                        <mxRectangle width="157" height="67" as="alternateBounds"/>
                    </mxGeometry>
                </mxCell>
                <mxCell id="129" value="ID_Usuario" style="shape=partialRectangle;html=1;whiteSpace=wrap;connectable=0;strokeColor=inherit;overflow=hidden;fillColor=none;top=0;left=0;bottom=0;right=0;pointerEvents=1;fontSize=16;fontFamily=Helvetica;fontColor=default;labelBackgroundColor=default;" vertex="1" parent="125">
                    <mxGeometry x="470" width="157" height="67" as="geometry">
                        <mxRectangle width="157" height="67" as="alternateBounds"/>
                    </mxGeometry>
                </mxCell>
                <mxCell id="130" value="" style="shape=tableRow;horizontal=0;startSize=0;swimlaneHead=0;swimlaneBody=0;strokeColor=inherit;top=0;left=0;bottom=0;right=0;collapsible=0;dropTarget=0;fillColor=none;points=[[0,0.5],[1,0.5]];portConstraint=eastwest;fontSize=16;fontFamily=Helvetica;fontColor=default;labelBackgroundColor=default;" vertex="1" parent="124">
                    <mxGeometry y="107" width="627" height="68" as="geometry"/>
                </mxCell>
                <mxCell id="131" value="05" style="shape=partialRectangle;html=1;whiteSpace=wrap;connectable=0;strokeColor=inherit;overflow=hidden;fillColor=none;top=0;left=0;bottom=0;right=0;pointerEvents=1;fontSize=16;fontFamily=Helvetica;fontColor=default;labelBackgroundColor=default;" vertex="1" parent="130">
                    <mxGeometry width="157" height="68" as="geometry">
                        <mxRectangle width="157" height="68" as="alternateBounds"/>
                    </mxGeometry>
                </mxCell>
                <mxCell id="132" value="Felipe" style="shape=partialRectangle;html=1;whiteSpace=wrap;connectable=0;strokeColor=inherit;overflow=hidden;fillColor=none;top=0;left=0;bottom=0;right=0;pointerEvents=1;fontSize=16;fontFamily=Helvetica;fontColor=default;labelBackgroundColor=default;" vertex="1" parent="130">
                    <mxGeometry x="157" width="156" height="68" as="geometry">
                        <mxRectangle width="156" height="68" as="alternateBounds"/>
                    </mxGeometry>
                </mxCell>
                <mxCell id="133" value="Felipe" style="shape=partialRectangle;html=1;whiteSpace=wrap;connectable=0;strokeColor=inherit;overflow=hidden;fillColor=none;top=0;left=0;bottom=0;right=0;pointerEvents=1;fontSize=16;fontFamily=Helvetica;fontColor=default;labelBackgroundColor=default;" vertex="1" parent="130">
                    <mxGeometry x="313" width="157" height="68" as="geometry">
                        <mxRectangle width="157" height="68" as="alternateBounds"/>
                    </mxGeometry>
                </mxCell>
                <mxCell id="134" value="5" style="shape=partialRectangle;html=1;whiteSpace=wrap;connectable=0;strokeColor=inherit;overflow=hidden;fillColor=none;top=0;left=0;bottom=0;right=0;pointerEvents=1;fontSize=16;fontFamily=Helvetica;fontColor=default;labelBackgroundColor=default;" vertex="1" parent="130">
                    <mxGeometry x="470" width="157" height="68" as="geometry">
                        <mxRectangle width="157" height="68" as="alternateBounds"/>
                    </mxGeometry>
                </mxCell>
                <mxCell id="135" value="" style="shape=tableRow;horizontal=0;startSize=0;swimlaneHead=0;swimlaneBody=0;strokeColor=inherit;top=0;left=0;bottom=0;right=0;collapsible=0;dropTarget=0;fillColor=none;points=[[0,0.5],[1,0.5]];portConstraint=eastwest;fontSize=16;fontFamily=Helvetica;fontColor=default;labelBackgroundColor=default;" vertex="1" parent="124">
                    <mxGeometry y="175" width="627" height="68" as="geometry"/>
                </mxCell>
                <mxCell id="136" value="" style="shape=partialRectangle;html=1;whiteSpace=wrap;connectable=0;strokeColor=inherit;overflow=hidden;fillColor=none;top=0;left=0;bottom=0;right=0;pointerEvents=1;fontSize=16;fontFamily=Helvetica;fontColor=default;labelBackgroundColor=default;" vertex="1" parent="135">
                    <mxGeometry width="157" height="68" as="geometry">
                        <mxRectangle width="157" height="68" as="alternateBounds"/>
                    </mxGeometry>
                </mxCell>
                <mxCell id="137" value="" style="shape=partialRectangle;html=1;whiteSpace=wrap;connectable=0;strokeColor=inherit;overflow=hidden;fillColor=none;top=0;left=0;bottom=0;right=0;pointerEvents=1;fontSize=16;fontFamily=Helvetica;fontColor=default;labelBackgroundColor=default;" vertex="1" parent="135">
                    <mxGeometry x="157" width="156" height="68" as="geometry">
                        <mxRectangle width="156" height="68" as="alternateBounds"/>
                    </mxGeometry>
                </mxCell>
                <mxCell id="138" value="" style="shape=partialRectangle;html=1;whiteSpace=wrap;connectable=0;strokeColor=inherit;overflow=hidden;fillColor=none;top=0;left=0;bottom=0;right=0;pointerEvents=1;fontSize=16;fontFamily=Helvetica;fontColor=default;labelBackgroundColor=default;" vertex="1" parent="135">
                    <mxGeometry x="313" width="157" height="68" as="geometry">
                        <mxRectangle width="157" height="68" as="alternateBounds"/>
                    </mxGeometry>
                </mxCell>
                <mxCell id="139" style="shape=partialRectangle;html=1;whiteSpace=wrap;connectable=0;strokeColor=inherit;overflow=hidden;fillColor=none;top=0;left=0;bottom=0;right=0;pointerEvents=1;fontSize=16;fontFamily=Helvetica;fontColor=default;labelBackgroundColor=default;" vertex="1" parent="135">
                    <mxGeometry x="470" width="157" height="68" as="geometry">
                        <mxRectangle width="157" height="68" as="alternateBounds"/>
                    </mxGeometry>
                </mxCell>
                <mxCell id="143" value="produto_pedido" style="shape=table;startSize=30;container=1;collapsible=0;childLayout=tableLayout;strokeColor=default;fontSize=16;align=center;verticalAlign=middle;fontFamily=Helvetica;fontColor=default;labelBackgroundColor=default;fillColor=default;" vertex="1" parent="1">
                    <mxGeometry x="-880" y="990" width="540" height="283" as="geometry"/>
                </mxCell>
                <mxCell id="144" value="" style="shape=tableRow;horizontal=0;startSize=0;swimlaneHead=0;swimlaneBody=0;strokeColor=inherit;top=0;left=0;bottom=0;right=0;collapsible=0;dropTarget=0;fillColor=none;points=[[0,0.5],[1,0.5]];portConstraint=eastwest;fontSize=16;align=center;verticalAlign=middle;fontFamily=Helvetica;fontColor=default;labelBackgroundColor=default;" vertex="1" parent="143">
                    <mxGeometry y="30" width="540" height="63" as="geometry"/>
                </mxCell>
                <mxCell id="145" value="ID" style="shape=partialRectangle;html=1;whiteSpace=wrap;connectable=0;strokeColor=inherit;overflow=hidden;fillColor=none;top=0;left=0;bottom=0;right=0;pointerEvents=1;fontSize=16;align=center;verticalAlign=middle;fontFamily=Helvetica;fontColor=default;labelBackgroundColor=default;" vertex="1" parent="144">
                    <mxGeometry width="180" height="63" as="geometry">
                        <mxRectangle width="180" height="63" as="alternateBounds"/>
                    </mxGeometry>
                </mxCell>
                <mxCell id="146" value="ID_pedido" style="shape=partialRectangle;html=1;whiteSpace=wrap;connectable=0;strokeColor=inherit;overflow=hidden;fillColor=none;top=0;left=0;bottom=0;right=0;pointerEvents=1;fontSize=16;align=center;verticalAlign=middle;fontFamily=Helvetica;fontColor=default;labelBackgroundColor=default;" vertex="1" parent="144">
                    <mxGeometry x="180" width="180" height="63" as="geometry">
                        <mxRectangle width="180" height="63" as="alternateBounds"/>
                    </mxGeometry>
                </mxCell>
                <mxCell id="147" value="ID_produto" style="shape=partialRectangle;html=1;whiteSpace=wrap;connectable=0;strokeColor=inherit;overflow=hidden;fillColor=none;top=0;left=0;bottom=0;right=0;pointerEvents=1;fontSize=16;align=center;verticalAlign=middle;fontFamily=Helvetica;fontColor=default;labelBackgroundColor=default;" vertex="1" parent="144">
                    <mxGeometry x="360" width="180" height="63" as="geometry">
                        <mxRectangle width="180" height="63" as="alternateBounds"/>
                    </mxGeometry>
                </mxCell>
                <mxCell id="148" value="" style="shape=tableRow;horizontal=0;startSize=0;swimlaneHead=0;swimlaneBody=0;strokeColor=inherit;top=0;left=0;bottom=0;right=0;collapsible=0;dropTarget=0;fillColor=none;points=[[0,0.5],[1,0.5]];portConstraint=eastwest;fontSize=16;align=center;verticalAlign=middle;fontFamily=Helvetica;fontColor=default;labelBackgroundColor=default;" vertex="1" parent="143">
                    <mxGeometry y="93" width="540" height="64" as="geometry"/>
                </mxCell>
                <mxCell id="149" value="15" style="shape=partialRectangle;html=1;whiteSpace=wrap;connectable=0;strokeColor=inherit;overflow=hidden;fillColor=none;top=0;left=0;bottom=0;right=0;pointerEvents=1;fontSize=16;align=center;verticalAlign=middle;fontFamily=Helvetica;fontColor=default;labelBackgroundColor=default;" vertex="1" parent="148">
                    <mxGeometry width="180" height="64" as="geometry">
                        <mxRectangle width="180" height="64" as="alternateBounds"/>
                    </mxGeometry>
                </mxCell>
                <mxCell id="150" value="59" style="shape=partialRectangle;html=1;whiteSpace=wrap;connectable=0;strokeColor=inherit;overflow=hidden;fillColor=none;top=0;left=0;bottom=0;right=0;pointerEvents=1;fontSize=16;align=center;verticalAlign=middle;fontFamily=Helvetica;fontColor=default;labelBackgroundColor=default;" vertex="1" parent="148">
                    <mxGeometry x="180" width="180" height="64" as="geometry">
                        <mxRectangle width="180" height="64" as="alternateBounds"/>
                    </mxGeometry>
                </mxCell>
                <mxCell id="151" value="10" style="shape=partialRectangle;html=1;whiteSpace=wrap;connectable=0;strokeColor=inherit;overflow=hidden;fillColor=none;top=0;left=0;bottom=0;right=0;pointerEvents=1;fontSize=16;align=center;verticalAlign=middle;fontFamily=Helvetica;fontColor=default;labelBackgroundColor=default;" vertex="1" parent="148">
                    <mxGeometry x="360" width="180" height="64" as="geometry">
                        <mxRectangle width="180" height="64" as="alternateBounds"/>
                    </mxGeometry>
                </mxCell>
                <mxCell id="152" value="" style="shape=tableRow;horizontal=0;startSize=0;swimlaneHead=0;swimlaneBody=0;strokeColor=inherit;top=0;left=0;bottom=0;right=0;collapsible=0;dropTarget=0;fillColor=none;points=[[0,0.5],[1,0.5]];portConstraint=eastwest;fontSize=16;align=center;verticalAlign=middle;fontFamily=Helvetica;fontColor=default;labelBackgroundColor=default;" vertex="1" parent="143">
                    <mxGeometry y="157" width="540" height="63" as="geometry"/>
                </mxCell>
                <mxCell id="153" value="16" style="shape=partialRectangle;html=1;whiteSpace=wrap;connectable=0;strokeColor=inherit;overflow=hidden;fillColor=none;top=0;left=0;bottom=0;right=0;pointerEvents=1;fontSize=16;align=center;verticalAlign=middle;fontFamily=Helvetica;fontColor=default;labelBackgroundColor=default;" vertex="1" parent="152">
                    <mxGeometry width="180" height="63" as="geometry">
                        <mxRectangle width="180" height="63" as="alternateBounds"/>
                    </mxGeometry>
                </mxCell>
                <mxCell id="154" value="59" style="shape=partialRectangle;html=1;whiteSpace=wrap;connectable=0;strokeColor=inherit;overflow=hidden;fillColor=none;top=0;left=0;bottom=0;right=0;pointerEvents=1;fontSize=16;align=center;verticalAlign=middle;fontFamily=Helvetica;fontColor=default;labelBackgroundColor=default;" vertex="1" parent="152">
                    <mxGeometry x="180" width="180" height="63" as="geometry">
                        <mxRectangle width="180" height="63" as="alternateBounds"/>
                    </mxGeometry>
                </mxCell>
                <mxCell id="155" value="11" style="shape=partialRectangle;html=1;whiteSpace=wrap;connectable=0;strokeColor=inherit;overflow=hidden;fillColor=none;top=0;left=0;bottom=0;right=0;pointerEvents=1;fontSize=16;align=center;verticalAlign=middle;fontFamily=Helvetica;fontColor=default;labelBackgroundColor=default;" vertex="1" parent="152">
                    <mxGeometry x="360" width="180" height="63" as="geometry">
                        <mxRectangle width="180" height="63" as="alternateBounds"/>
                    </mxGeometry>
                </mxCell>
                <mxCell id="180" style="shape=tableRow;horizontal=0;startSize=0;swimlaneHead=0;swimlaneBody=0;strokeColor=inherit;top=0;left=0;bottom=0;right=0;collapsible=0;dropTarget=0;fillColor=none;points=[[0,0.5],[1,0.5]];portConstraint=eastwest;fontSize=16;align=center;verticalAlign=middle;fontFamily=Helvetica;fontColor=default;labelBackgroundColor=default;" vertex="1" parent="143">
                    <mxGeometry y="220" width="540" height="63" as="geometry"/>
                </mxCell>
                <mxCell id="181" value="17" style="shape=partialRectangle;html=1;whiteSpace=wrap;connectable=0;strokeColor=inherit;overflow=hidden;fillColor=none;top=0;left=0;bottom=0;right=0;pointerEvents=1;fontSize=16;align=center;verticalAlign=middle;fontFamily=Helvetica;fontColor=default;labelBackgroundColor=default;" vertex="1" parent="180">
                    <mxGeometry width="180" height="63" as="geometry">
                        <mxRectangle width="180" height="63" as="alternateBounds"/>
                    </mxGeometry>
                </mxCell>
                <mxCell id="182" value="60" style="shape=partialRectangle;html=1;whiteSpace=wrap;connectable=0;strokeColor=inherit;overflow=hidden;fillColor=none;top=0;left=0;bottom=0;right=0;pointerEvents=1;fontSize=16;align=center;verticalAlign=middle;fontFamily=Helvetica;fontColor=default;labelBackgroundColor=default;" vertex="1" parent="180">
                    <mxGeometry x="180" width="180" height="63" as="geometry">
                        <mxRectangle width="180" height="63" as="alternateBounds"/>
                    </mxGeometry>
                </mxCell>
                <mxCell id="183" value="10" style="shape=partialRectangle;html=1;whiteSpace=wrap;connectable=0;strokeColor=inherit;overflow=hidden;fillColor=none;top=0;left=0;bottom=0;right=0;pointerEvents=1;fontSize=16;align=center;verticalAlign=middle;fontFamily=Helvetica;fontColor=default;labelBackgroundColor=default;" vertex="1" parent="180">
                    <mxGeometry x="360" width="180" height="63" as="geometry">
                        <mxRectangle width="180" height="63" as="alternateBounds"/>
                    </mxGeometry>
                </mxCell>
                <mxCell id="156" value="nomeProduto" style="ellipse;whiteSpace=wrap;html=1;" vertex="1" parent="1">
                    <mxGeometry x="60" y="540" width="80" height="30" as="geometry"/>
                </mxCell>
                <mxCell id="157" value="valorProduto" style="ellipse;whiteSpace=wrap;html=1;" vertex="1" parent="1">
                    <mxGeometry x="160" y="540" width="80" height="30" as="geometry"/>
                </mxCell>
                <mxCell id="158" value="" style="endArrow=none;html=1;exitX=0.5;exitY=0;exitDx=0;exitDy=0;entryX=0.5;entryY=1;entryDx=0;entryDy=0;" edge="1" parent="1" target="15">
                    <mxGeometry width="50" height="50" relative="1" as="geometry">
                        <mxPoint x="90" y="540" as="sourcePoint"/>
                        <mxPoint x="130" y="490" as="targetPoint"/>
                    </mxGeometry>
                </mxCell>
                <mxCell id="159" value="" style="endArrow=none;html=1;exitX=0.5;exitY=0;exitDx=0;exitDy=0;entryX=0;entryY=1;entryDx=0;entryDy=0;" edge="1" parent="1" target="40">
                    <mxGeometry width="50" height="50" relative="1" as="geometry">
                        <mxPoint x="198.82" y="540" as="sourcePoint"/>
                        <mxPoint x="198.82" y="490" as="targetPoint"/>
                    </mxGeometry>
                </mxCell>
                <mxCell id="160" value="Produto" style="shape=table;startSize=30;container=1;collapsible=0;childLayout=tableLayout;strokeColor=default;fontSize=16;align=center;verticalAlign=middle;fontFamily=Helvetica;fontColor=default;labelBackgroundColor=default;fillColor=default;" vertex="1" parent="1">
                    <mxGeometry x="-1500" y="990" width="540" height="283" as="geometry"/>
                </mxCell>
                <mxCell id="161" value="" style="shape=tableRow;horizontal=0;startSize=0;swimlaneHead=0;swimlaneBody=0;strokeColor=inherit;top=0;left=0;bottom=0;right=0;collapsible=0;dropTarget=0;fillColor=none;points=[[0,0.5],[1,0.5]];portConstraint=eastwest;fontSize=16;align=center;verticalAlign=middle;fontFamily=Helvetica;fontColor=default;labelBackgroundColor=default;" vertex="1" parent="160">
                    <mxGeometry y="30" width="540" height="63" as="geometry"/>
                </mxCell>
                <mxCell id="162" value="ID" style="shape=partialRectangle;html=1;whiteSpace=wrap;connectable=0;strokeColor=inherit;overflow=hidden;fillColor=none;top=0;left=0;bottom=0;right=0;pointerEvents=1;fontSize=16;align=center;verticalAlign=middle;fontFamily=Helvetica;fontColor=default;labelBackgroundColor=default;" vertex="1" parent="161">
                    <mxGeometry width="180" height="63" as="geometry">
                        <mxRectangle width="180" height="63" as="alternateBounds"/>
                    </mxGeometry>
                </mxCell>
                <mxCell id="163" value="Preco" style="shape=partialRectangle;html=1;whiteSpace=wrap;connectable=0;strokeColor=inherit;overflow=hidden;fillColor=none;top=0;left=0;bottom=0;right=0;pointerEvents=1;fontSize=16;align=center;verticalAlign=middle;fontFamily=Helvetica;fontColor=default;labelBackgroundColor=default;" vertex="1" parent="161">
                    <mxGeometry x="180" width="180" height="63" as="geometry">
                        <mxRectangle width="180" height="63" as="alternateBounds"/>
                    </mxGeometry>
                </mxCell>
                <mxCell id="164" value="Nome" style="shape=partialRectangle;html=1;whiteSpace=wrap;connectable=0;strokeColor=inherit;overflow=hidden;fillColor=none;top=0;left=0;bottom=0;right=0;pointerEvents=1;fontSize=16;align=center;verticalAlign=middle;fontFamily=Helvetica;fontColor=default;labelBackgroundColor=default;" vertex="1" parent="161">
                    <mxGeometry x="360" width="180" height="63" as="geometry">
                        <mxRectangle width="180" height="63" as="alternateBounds"/>
                    </mxGeometry>
                </mxCell>
                <mxCell id="165" value="" style="shape=tableRow;horizontal=0;startSize=0;swimlaneHead=0;swimlaneBody=0;strokeColor=inherit;top=0;left=0;bottom=0;right=0;collapsible=0;dropTarget=0;fillColor=none;points=[[0,0.5],[1,0.5]];portConstraint=eastwest;fontSize=16;align=center;verticalAlign=middle;fontFamily=Helvetica;fontColor=default;labelBackgroundColor=default;" vertex="1" parent="160">
                    <mxGeometry y="93" width="540" height="64" as="geometry"/>
                </mxCell>
                <mxCell id="166" value="10" style="shape=partialRectangle;html=1;whiteSpace=wrap;connectable=0;strokeColor=inherit;overflow=hidden;fillColor=none;top=0;left=0;bottom=0;right=0;pointerEvents=1;fontSize=16;align=center;verticalAlign=middle;fontFamily=Helvetica;fontColor=default;labelBackgroundColor=default;" vertex="1" parent="165">
                    <mxGeometry width="180" height="64" as="geometry">
                        <mxRectangle width="180" height="64" as="alternateBounds"/>
                    </mxGeometry>
                </mxCell>
                <mxCell id="167" value="1500" style="shape=partialRectangle;html=1;whiteSpace=wrap;connectable=0;strokeColor=inherit;overflow=hidden;fillColor=none;top=0;left=0;bottom=0;right=0;pointerEvents=1;fontSize=16;align=center;verticalAlign=middle;fontFamily=Helvetica;fontColor=default;labelBackgroundColor=default;" vertex="1" parent="165">
                    <mxGeometry x="180" width="180" height="64" as="geometry">
                        <mxRectangle width="180" height="64" as="alternateBounds"/>
                    </mxGeometry>
                </mxCell>
                <mxCell id="168" value="monitor" style="shape=partialRectangle;html=1;whiteSpace=wrap;connectable=0;strokeColor=inherit;overflow=hidden;fillColor=none;top=0;left=0;bottom=0;right=0;pointerEvents=1;fontSize=16;align=center;verticalAlign=middle;fontFamily=Helvetica;fontColor=default;labelBackgroundColor=default;" vertex="1" parent="165">
                    <mxGeometry x="360" width="180" height="64" as="geometry">
                        <mxRectangle width="180" height="64" as="alternateBounds"/>
                    </mxGeometry>
                </mxCell>
                <mxCell id="169" value="" style="shape=tableRow;horizontal=0;startSize=0;swimlaneHead=0;swimlaneBody=0;strokeColor=inherit;top=0;left=0;bottom=0;right=0;collapsible=0;dropTarget=0;fillColor=none;points=[[0,0.5],[1,0.5]];portConstraint=eastwest;fontSize=16;align=center;verticalAlign=middle;fontFamily=Helvetica;fontColor=default;labelBackgroundColor=default;" vertex="1" parent="160">
                    <mxGeometry y="157" width="540" height="63" as="geometry"/>
                </mxCell>
                <mxCell id="170" value="11" style="shape=partialRectangle;html=1;whiteSpace=wrap;connectable=0;strokeColor=inherit;overflow=hidden;fillColor=none;top=0;left=0;bottom=0;right=0;pointerEvents=1;fontSize=16;align=center;verticalAlign=middle;fontFamily=Helvetica;fontColor=default;labelBackgroundColor=default;" vertex="1" parent="169">
                    <mxGeometry width="180" height="63" as="geometry">
                        <mxRectangle width="180" height="63" as="alternateBounds"/>
                    </mxGeometry>
                </mxCell>
                <mxCell id="171" value="200" style="shape=partialRectangle;html=1;whiteSpace=wrap;connectable=0;strokeColor=inherit;overflow=hidden;fillColor=none;top=0;left=0;bottom=0;right=0;pointerEvents=1;fontSize=16;align=center;verticalAlign=middle;fontFamily=Helvetica;fontColor=default;labelBackgroundColor=default;" vertex="1" parent="169">
                    <mxGeometry x="180" width="180" height="63" as="geometry">
                        <mxRectangle width="180" height="63" as="alternateBounds"/>
                    </mxGeometry>
                </mxCell>
                <mxCell id="172" value="teclado" style="shape=partialRectangle;html=1;whiteSpace=wrap;connectable=0;strokeColor=inherit;overflow=hidden;fillColor=none;top=0;left=0;bottom=0;right=0;pointerEvents=1;fontSize=16;align=center;verticalAlign=middle;fontFamily=Helvetica;fontColor=default;labelBackgroundColor=default;" vertex="1" parent="169">
                    <mxGeometry x="360" width="180" height="63" as="geometry">
                        <mxRectangle width="180" height="63" as="alternateBounds"/>
                    </mxGeometry>
                </mxCell>
                <mxCell id="173" style="shape=tableRow;horizontal=0;startSize=0;swimlaneHead=0;swimlaneBody=0;strokeColor=inherit;top=0;left=0;bottom=0;right=0;collapsible=0;dropTarget=0;fillColor=none;points=[[0,0.5],[1,0.5]];portConstraint=eastwest;fontSize=16;align=center;verticalAlign=middle;fontFamily=Helvetica;fontColor=default;labelBackgroundColor=default;" vertex="1" parent="160">
                    <mxGeometry y="220" width="540" height="63" as="geometry"/>
                </mxCell>
                <mxCell id="174" value="12" style="shape=partialRectangle;html=1;whiteSpace=wrap;connectable=0;strokeColor=inherit;overflow=hidden;fillColor=none;top=0;left=0;bottom=0;right=0;pointerEvents=1;fontSize=16;align=center;verticalAlign=middle;fontFamily=Helvetica;fontColor=default;labelBackgroundColor=default;" vertex="1" parent="173">
                    <mxGeometry width="180" height="63" as="geometry">
                        <mxRectangle width="180" height="63" as="alternateBounds"/>
                    </mxGeometry>
                </mxCell>
                <mxCell id="175" style="shape=partialRectangle;html=1;whiteSpace=wrap;connectable=0;strokeColor=inherit;overflow=hidden;fillColor=none;top=0;left=0;bottom=0;right=0;pointerEvents=1;fontSize=16;align=center;verticalAlign=middle;fontFamily=Helvetica;fontColor=default;labelBackgroundColor=default;" vertex="1" parent="173">
                    <mxGeometry x="180" width="180" height="63" as="geometry">
                        <mxRectangle width="180" height="63" as="alternateBounds"/>
                    </mxGeometry>
                </mxCell>
                <mxCell id="176" style="shape=partialRectangle;html=1;whiteSpace=wrap;connectable=0;strokeColor=inherit;overflow=hidden;fillColor=none;top=0;left=0;bottom=0;right=0;pointerEvents=1;fontSize=16;align=center;verticalAlign=middle;fontFamily=Helvetica;fontColor=default;labelBackgroundColor=default;" vertex="1" parent="173">
                    <mxGeometry x="360" width="180" height="63" as="geometry">
                        <mxRectangle width="180" height="63" as="alternateBounds"/>
                    </mxGeometry>
                </mxCell>
                <mxCell id="184" value="pedidos" style="shape=table;startSize=30;container=1;collapsible=0;childLayout=tableLayout;strokeColor=default;fontSize=16;align=center;verticalAlign=middle;fontFamily=Helvetica;fontColor=default;labelBackgroundColor=default;fillColor=default;" vertex="1" parent="1">
                    <mxGeometry x="-290" y="1010" width="720" height="283" as="geometry"/>
                </mxCell>
                <mxCell id="185" value="" style="shape=tableRow;horizontal=0;startSize=0;swimlaneHead=0;swimlaneBody=0;strokeColor=inherit;top=0;left=0;bottom=0;right=0;collapsible=0;dropTarget=0;fillColor=none;points=[[0,0.5],[1,0.5]];portConstraint=eastwest;fontSize=16;align=center;verticalAlign=middle;fontFamily=Helvetica;fontColor=default;labelBackgroundColor=default;" vertex="1" parent="184">
                    <mxGeometry y="30" width="720" height="63" as="geometry"/>
                </mxCell>
                <mxCell id="186" value="ID" style="shape=partialRectangle;html=1;whiteSpace=wrap;connectable=0;strokeColor=inherit;overflow=hidden;fillColor=none;top=0;left=0;bottom=0;right=0;pointerEvents=1;fontSize=16;align=center;verticalAlign=middle;fontFamily=Helvetica;fontColor=default;labelBackgroundColor=default;" vertex="1" parent="185">
                    <mxGeometry width="180" height="63" as="geometry">
                        <mxRectangle width="180" height="63" as="alternateBounds"/>
                    </mxGeometry>
                </mxCell>
                <mxCell id="187" value="Codigo" style="shape=partialRectangle;html=1;whiteSpace=wrap;connectable=0;strokeColor=inherit;overflow=hidden;fillColor=none;top=0;left=0;bottom=0;right=0;pointerEvents=1;fontSize=16;align=center;verticalAlign=middle;fontFamily=Helvetica;fontColor=default;labelBackgroundColor=default;" vertex="1" parent="185">
                    <mxGeometry x="180" width="180" height="63" as="geometry">
                        <mxRectangle width="180" height="63" as="alternateBounds"/>
                    </mxGeometry>
                </mxCell>
                <mxCell id="188" value="Valor_Total" style="shape=partialRectangle;html=1;whiteSpace=wrap;connectable=0;strokeColor=inherit;overflow=hidden;fillColor=none;top=0;left=0;bottom=0;right=0;pointerEvents=1;fontSize=16;align=center;verticalAlign=middle;fontFamily=Helvetica;fontColor=default;labelBackgroundColor=default;" vertex="1" parent="185">
                    <mxGeometry x="360" width="180" height="63" as="geometry">
                        <mxRectangle width="180" height="63" as="alternateBounds"/>
                    </mxGeometry>
                </mxCell>
                <mxCell id="201" value="ID_Usuario" style="shape=partialRectangle;html=1;whiteSpace=wrap;connectable=0;strokeColor=inherit;overflow=hidden;fillColor=none;top=0;left=0;bottom=0;right=0;pointerEvents=1;fontSize=16;align=center;verticalAlign=middle;fontFamily=Helvetica;fontColor=default;labelBackgroundColor=default;" vertex="1" parent="185">
                    <mxGeometry x="540" width="180" height="63" as="geometry">
                        <mxRectangle width="180" height="63" as="alternateBounds"/>
                    </mxGeometry>
                </mxCell>
                <mxCell id="189" value="" style="shape=tableRow;horizontal=0;startSize=0;swimlaneHead=0;swimlaneBody=0;strokeColor=inherit;top=0;left=0;bottom=0;right=0;collapsible=0;dropTarget=0;fillColor=none;points=[[0,0.5],[1,0.5]];portConstraint=eastwest;fontSize=16;align=center;verticalAlign=middle;fontFamily=Helvetica;fontColor=default;labelBackgroundColor=default;" vertex="1" parent="184">
                    <mxGeometry y="93" width="720" height="64" as="geometry"/>
                </mxCell>
                <mxCell id="190" value="59" style="shape=partialRectangle;html=1;whiteSpace=wrap;connectable=0;strokeColor=inherit;overflow=hidden;fillColor=none;top=0;left=0;bottom=0;right=0;pointerEvents=1;fontSize=16;align=center;verticalAlign=middle;fontFamily=Helvetica;fontColor=default;labelBackgroundColor=default;" vertex="1" parent="189">
                    <mxGeometry width="180" height="64" as="geometry">
                        <mxRectangle width="180" height="64" as="alternateBounds"/>
                    </mxGeometry>
                </mxCell>
                <mxCell id="191" value="TI-10" style="shape=partialRectangle;html=1;whiteSpace=wrap;connectable=0;strokeColor=inherit;overflow=hidden;fillColor=none;top=0;left=0;bottom=0;right=0;pointerEvents=1;fontSize=16;align=center;verticalAlign=middle;fontFamily=Helvetica;fontColor=default;labelBackgroundColor=default;" vertex="1" parent="189">
                    <mxGeometry x="180" width="180" height="64" as="geometry">
                        <mxRectangle width="180" height="64" as="alternateBounds"/>
                    </mxGeometry>
                </mxCell>
                <mxCell id="192" value="1700" style="shape=partialRectangle;html=1;whiteSpace=wrap;connectable=0;strokeColor=inherit;overflow=hidden;fillColor=none;top=0;left=0;bottom=0;right=0;pointerEvents=1;fontSize=16;align=center;verticalAlign=middle;fontFamily=Helvetica;fontColor=default;labelBackgroundColor=default;" vertex="1" parent="189">
                    <mxGeometry x="360" width="180" height="64" as="geometry">
                        <mxRectangle width="180" height="64" as="alternateBounds"/>
                    </mxGeometry>
                </mxCell>
                <mxCell id="202" value="5" style="shape=partialRectangle;html=1;whiteSpace=wrap;connectable=0;strokeColor=inherit;overflow=hidden;fillColor=none;top=0;left=0;bottom=0;right=0;pointerEvents=1;fontSize=16;align=center;verticalAlign=middle;fontFamily=Helvetica;fontColor=default;labelBackgroundColor=default;" vertex="1" parent="189">
                    <mxGeometry x="540" width="180" height="64" as="geometry">
                        <mxRectangle width="180" height="64" as="alternateBounds"/>
                    </mxGeometry>
                </mxCell>
                <mxCell id="193" value="" style="shape=tableRow;horizontal=0;startSize=0;swimlaneHead=0;swimlaneBody=0;strokeColor=inherit;top=0;left=0;bottom=0;right=0;collapsible=0;dropTarget=0;fillColor=none;points=[[0,0.5],[1,0.5]];portConstraint=eastwest;fontSize=16;align=center;verticalAlign=middle;fontFamily=Helvetica;fontColor=default;labelBackgroundColor=default;" vertex="1" parent="184">
                    <mxGeometry y="157" width="720" height="63" as="geometry"/>
                </mxCell>
                <mxCell id="194" value="16" style="shape=partialRectangle;html=1;whiteSpace=wrap;connectable=0;strokeColor=inherit;overflow=hidden;fillColor=none;top=0;left=0;bottom=0;right=0;pointerEvents=1;fontSize=16;align=center;verticalAlign=middle;fontFamily=Helvetica;fontColor=default;labelBackgroundColor=default;" vertex="1" parent="193">
                    <mxGeometry width="180" height="63" as="geometry">
                        <mxRectangle width="180" height="63" as="alternateBounds"/>
                    </mxGeometry>
                </mxCell>
                <mxCell id="195" value="59" style="shape=partialRectangle;html=1;whiteSpace=wrap;connectable=0;strokeColor=inherit;overflow=hidden;fillColor=none;top=0;left=0;bottom=0;right=0;pointerEvents=1;fontSize=16;align=center;verticalAlign=middle;fontFamily=Helvetica;fontColor=default;labelBackgroundColor=default;" vertex="1" parent="193">
                    <mxGeometry x="180" width="180" height="63" as="geometry">
                        <mxRectangle width="180" height="63" as="alternateBounds"/>
                    </mxGeometry>
                </mxCell>
                <mxCell id="196" value="1500" style="shape=partialRectangle;html=1;whiteSpace=wrap;connectable=0;strokeColor=inherit;overflow=hidden;fillColor=none;top=0;left=0;bottom=0;right=0;pointerEvents=1;fontSize=16;align=center;verticalAlign=middle;fontFamily=Helvetica;fontColor=default;labelBackgroundColor=default;" vertex="1" parent="193">
                    <mxGeometry x="360" width="180" height="63" as="geometry">
                        <mxRectangle width="180" height="63" as="alternateBounds"/>
                    </mxGeometry>
                </mxCell>
                <mxCell id="203" value="6" style="shape=partialRectangle;html=1;whiteSpace=wrap;connectable=0;strokeColor=inherit;overflow=hidden;fillColor=none;top=0;left=0;bottom=0;right=0;pointerEvents=1;fontSize=16;align=center;verticalAlign=middle;fontFamily=Helvetica;fontColor=default;labelBackgroundColor=default;" vertex="1" parent="193">
                    <mxGeometry x="540" width="180" height="63" as="geometry">
                        <mxRectangle width="180" height="63" as="alternateBounds"/>
                    </mxGeometry>
                </mxCell>
                <mxCell id="197" style="shape=tableRow;horizontal=0;startSize=0;swimlaneHead=0;swimlaneBody=0;strokeColor=inherit;top=0;left=0;bottom=0;right=0;collapsible=0;dropTarget=0;fillColor=none;points=[[0,0.5],[1,0.5]];portConstraint=eastwest;fontSize=16;align=center;verticalAlign=middle;fontFamily=Helvetica;fontColor=default;labelBackgroundColor=default;" vertex="1" parent="184">
                    <mxGeometry y="220" width="720" height="63" as="geometry"/>
                </mxCell>
                <mxCell id="198" value="17" style="shape=partialRectangle;html=1;whiteSpace=wrap;connectable=0;strokeColor=inherit;overflow=hidden;fillColor=none;top=0;left=0;bottom=0;right=0;pointerEvents=1;fontSize=16;align=center;verticalAlign=middle;fontFamily=Helvetica;fontColor=default;labelBackgroundColor=default;" vertex="1" parent="197">
                    <mxGeometry width="180" height="63" as="geometry">
                        <mxRectangle width="180" height="63" as="alternateBounds"/>
                    </mxGeometry>
                </mxCell>
                <mxCell id="199" value="60" style="shape=partialRectangle;html=1;whiteSpace=wrap;connectable=0;strokeColor=inherit;overflow=hidden;fillColor=none;top=0;left=0;bottom=0;right=0;pointerEvents=1;fontSize=16;align=center;verticalAlign=middle;fontFamily=Helvetica;fontColor=default;labelBackgroundColor=default;" vertex="1" parent="197">
                    <mxGeometry x="180" width="180" height="63" as="geometry">
                        <mxRectangle width="180" height="63" as="alternateBounds"/>
                    </mxGeometry>
                </mxCell>
                <mxCell id="200" value="10" style="shape=partialRectangle;html=1;whiteSpace=wrap;connectable=0;strokeColor=inherit;overflow=hidden;fillColor=none;top=0;left=0;bottom=0;right=0;pointerEvents=1;fontSize=16;align=center;verticalAlign=middle;fontFamily=Helvetica;fontColor=default;labelBackgroundColor=default;" vertex="1" parent="197">
                    <mxGeometry x="360" width="180" height="63" as="geometry">
                        <mxRectangle width="180" height="63" as="alternateBounds"/>
                    </mxGeometry>
                </mxCell>
                <mxCell id="204" style="shape=partialRectangle;html=1;whiteSpace=wrap;connectable=0;strokeColor=inherit;overflow=hidden;fillColor=none;top=0;left=0;bottom=0;right=0;pointerEvents=1;fontSize=16;align=center;verticalAlign=middle;fontFamily=Helvetica;fontColor=default;labelBackgroundColor=default;" vertex="1" parent="197">
                    <mxGeometry x="540" width="180" height="63" as="geometry">
                        <mxRectangle width="180" height="63" as="alternateBounds"/>
                    </mxGeometry>
                </mxCell>
            </root>
        </mxGraphModel>
    </diagram>
</mxfile>